<svg version="1.1" xmlns="http://www.w3.org/2000/svg" xmlns:xlink="http://www.w3.org/1999/xlink" x="0px" y="0px" viewBox="0 0 64 64" style="enable-background:new 0 0 64 64;" xml:space="preserve">
<g id="css">
</g>
<g id="mobile_development">
</g>
<g id="code">
</g>
<g id="hardware_programming">
</g>
<g id="python">
</g>
<g id="development">
</g>
<g id="update">
</g>
<g id="maintenance">
</g>
<g id="peformance_testing">
</g>
<g id="programming">
</g>
<g id="hacker">
	<g>
		<path d="M32.0137,44.3887c-2.396,0-4.3457,1.9502-4.3457,4.3467c0,2.3975,1.9497,4.3486,4.3457,4.3486    c2.3984,0,4.3496-1.9512,4.3496-4.3486C36.3633,46.3389,34.4121,44.3887,32.0137,44.3887z M32.0137,51.084    c-1.2935,0-2.3457-1.0537-2.3457-2.3486c0-1.2939,1.0522-2.3467,2.3457-2.3467c1.2954,0,2.3496,1.0527,2.3496,2.3467    C34.3633,50.0303,33.3091,51.084,32.0137,51.084z" fill="#ffdc6c"/>
		<path d="M53.4355,32.1123c-2.0596-2.2959-5.0938-3.7959-8.3364-4.1719c3.2305-6.6797,3.2896-14.3154,0.0635-19.835    C42.4839,3.5234,37.8091,1,31.9995,1c-5.8091,0-10.4834,2.5234-13.1616,7.1064c-3.2256,5.5205-3.165,13.1563,0.0654,19.834    c-3.2422,0.376-6.2764,1.875-8.3359,4.1689c-2.1743,2.4229-3.1323,5.4756-2.7734,8.7813l0.8345,13.8848    c0.1701,2.8105,1.9252,4.9888,4.623,5.8658C13.6236,61.9962,14.8536,63,16.3252,63h31.3804c1.475,0,2.7076-1.0084,3.0766-2.3682    c2.6824-0.8848,4.4235-3.058,4.5889-5.8574l0.8306-13.835C56.5654,37.5869,55.6094,34.5342,53.4355,32.1123z M47.7056,61H16.3252    c-0.5529,0-0.9995-0.3834-1.1381-0.8933c0.0004-0.0015,0.0015-0.0026,0.0018-0.0042c0.037-0.168,0.0169-0.3301-0.0272-0.4845    c0.0911-0.5723,0.5662-1.0184,1.1634-1.0184h0.248h30.8843h0.248c0.5808,0,1.044,0.4229,1.1541,0.972    c-0.0571,0.1675-0.0866,0.3455-0.0457,0.5309c0.004,0.0182,0.0155,0.032,0.0204,0.0497C48.6815,60.6395,48.2423,61,47.7056,61z     M46.5903,56.5996H17.4399l-2.3389-16.3242c-0.0156-0.1113,0.0249-0.2236,0.1211-0.334c0.1582-0.1826,0.4185-0.2998,0.6631-0.2998    h32.2603c0.2407,0,0.4976,0.1152,0.6543,0.2949c0.0986,0.1133,0.1411,0.2295,0.127,0.3369L46.5903,56.5996z M54.2095,40.7715    L53.375,54.6553c-0.1082,1.8244-1.0903,3.192-2.7228,3.897c-0.3733-0.8785-1.1342-1.5434-2.0616-1.8126l2.3171-16.1918    c0.0928-0.6934-0.1216-1.3779-0.603-1.9287c-0.5356-0.6123-1.3428-0.9775-2.1592-0.9775H15.8853    c-0.8232,0-1.6353,0.3691-2.1729,0.9873c-0.479,0.5518-0.689,1.2354-0.5913,1.9277L15.44,56.7397    c-0.9313,0.2704-1.694,0.9399-2.0657,1.8238c-1.6468-0.7012-2.6387-2.074-2.7498-3.9083L9.7861,40.7236    c-0.2998-2.7734,0.4849-5.29,2.2695-7.2773c2.0225-2.2539,5.1816-3.5986,8.4502-3.5986c0.3555,0,0.6841-0.1885,0.8633-0.4951    c0.1792-0.3076,0.1826-0.6865,0.0078-0.9961c-3.5396-6.2822-3.8662-14.0146-0.812-19.2402C22.1953,6.3262,25.5024,3,31.9995,3    c6.498,0,9.8057,3.3252,11.436,6.1152c3.0542,5.2246,2.729,12.957-0.8101,19.2422c-0.1743,0.3096-0.1709,0.6885,0.0083,0.9951    s0.5078,0.4951,0.8633,0.4951c3.2686,0,6.4272,1.3457,8.4497,3.5996C53.7305,35.4355,54.5142,37.9512,54.2095,40.7715z" fill="#ffdc6c"/>
		<path d="M41.5103,15.5225c-1.7495-3.1611-5.4141-5.1133-9.5132-5.1064c-4.1494,0.0107-7.8086,1.9971-9.5488,5.1855    c-1.4926,2.7338-2.2683,7.5023,2.1029,14.8813c-0.2843,0.3897-0.2689,0.9315,0.0822,1.2847    c0.5227,0.5256,1.1152,0.9756,1.7543,1.3623c0.0256,0.0148,0.048,0.0305,0.0747,0.0429c1.5866,0.9404,3.4836,1.4532,5.5372,1.4532    c2.1361,0,4.1062-0.5486,5.7295-1.5616c0.0212-0.0123,0.0422-0.022,0.0626-0.0359c0.5725-0.3634,1.1027-0.7829,1.5781-1.2609    c0.3426-0.3447,0.3638-0.8685,0.1012-1.2562C43.8285,23.047,43.0242,18.2577,41.5103,15.5225z M27.5739,31.5073    c-0.2357-0.3441-0.4662-0.6859-0.6798-1.019c-4.5898-7.1777-3.9966-11.5361-2.6904-13.9287    c1.3906-2.5469,4.3789-4.1348,7.7983-4.1436c0.0093,0,0.0181,0,0.0273,0c3.3779,0,6.3389,1.5596,7.731,4.0752    c1.3257,2.3936,1.9448,6.7725-2.6279,14.0342c-0.1921,0.3012-0.3962,0.6132-0.6041,0.9254    c-1.2815,0.7609-2.8342,1.1752-4.5287,1.1752C30.3499,32.626,28.8358,32.2312,27.5739,31.5073z" fill="#ffdc6c"/>
		<path d="M29.4341,20.2832l-0.8135-0.8633c-0.3789-0.4023-1.0117-0.4209-1.4141-0.042c-0.4019,0.3789-0.4204,1.0117-0.042,1.4131    l0.8135,0.8633c0.1968,0.209,0.4624,0.3145,0.728,0.3145c0.2461,0,0.4927-0.0898,0.686-0.2725    C29.7939,21.3174,29.8125,20.6846,29.4341,20.2832z" fill="#ffdc6c"/>
		<path d="M36.8242,20.791c0.3789-0.4014,0.3604-1.0342-0.0415-1.4131c-0.4023-0.3789-1.0347-0.3604-1.4136,0.042l-0.814,0.8633    c-0.3789,0.4014-0.3604,1.0342,0.0415,1.4131c0.1934,0.1826,0.4399,0.2725,0.686,0.2725c0.2656,0,0.5308-0.1055,0.7275-0.3145    L36.8242,20.791z" fill="#ffdc6c"/>
		<path d="M32.7456,27.9482c-0.1704,0.1719-0.4385,0.2676-0.7441,0.2695c-0.3184-0.002-0.5879-0.0977-0.7588-0.2695    c-0.3887-0.3926-1.0215-0.3945-1.4141-0.0059c-0.3921,0.3887-0.3945,1.0225-0.0059,1.4141    c0.5469,0.5508,1.3164,0.8564,2.1787,0.8613c0.8501-0.0049,1.6187-0.3105,2.165-0.8613c0.3887-0.3926,0.3857-1.0254-0.0063-1.4141    C33.7666,27.5527,33.1343,27.5547,32.7456,27.9482z" fill="#ffdc6c"/>
	</g>
</g>
<g id="web_programming">
</g>
<g id="html">
</g>
<g id="typing">
</g>
<g id="search_1_">
</g>
<g id="android">
</g>
<g id="coding">
</g>
<g id="file">
</g>
<g id="api">
</g>
<g id="java">
</g>
<g id="xml">
</g>
<g id="security">
</g>
<g id="algorithm">
</g>
<g id="php">
</g>
<g id="eror">
</g>
<g id="bug">
</g>
<g id="c_x2B__x2B_">
</g>
<g id="search">
</g>
<g id="binary">
</g>
<g id="database_sql">
</g>
</svg>